<?xml version="1.0" encoding="utf-8"?>
<!-- Generator: Adobe Illustrator 25.0.1, SVG Export Plug-In . SVG Version: 6.00 Build 0)  -->
<svg version="1.1" id="Layer_1" xmlns="http://www.w3.org/2000/svg" xmlns:xlink="http://www.w3.org/1999/xlink" x="0px" y="0px"
	 viewBox="0 0 543.8 122.4" style="enable-background:new 0 0 543.8 122.4;" xml:space="preserve">
<style type="text/css">
	.st0{fill:#6F468E;}
</style>
<g id="Layer_2_1_">
	<g id="Layer_1-2">
		<path class="st0" d="M66.3,17H18.1v28.9h46.8V63H18.1v40.2h48.2v17H0V0h66.3V17z"/>
		<path class="st0" d="M90,120.2H68.6L130,44.4h21.5L90,120.2z M128.3,85.2l27.6,35h-20.8l-17.4-22.3L128.3,85.2z M97.2,72.4
			l-22.1-28H96l11.7,15.3L97.2,72.4z"/>
		<path class="st0" d="M213,44.4h17.6v75.8H213v-7.9c-7.2,6.8-15,10.1-23.3,10.1c-10.5,0-19.1-3.8-26-11.4
			c-6.8-7.7-10.2-17.4-10.2-29c0-11.4,3.4-20.8,10.2-28.4c6.4-7.4,15.8-11.6,25.5-11.4c8.8,0,16.7,3.6,23.7,10.9L213,44.4z
			 M171.4,82.1c0,7.3,1.9,13.2,5.8,17.8c3.7,4.5,9.3,7,15.1,6.9c6.5,0,11.7-2.2,15.7-6.7c4-4.6,6-10.5,6-17.6s-2-13-6-17.6
			c-3.9-4.5-9.6-7-15.6-6.8c-5.8-0.1-11.4,2.4-15.1,6.9C173.4,69.5,171.4,75.2,171.4,82.1z"/>
		<path class="st0" d="M244.7,44.4h17.5v7c3.4-3.5,6.3-5.9,8.6-7.2c3-1.4,6.3-2.1,9.6-2c8.6,0,15.3,3.7,20.3,11.2
			c5.5-7.5,12.9-11.2,22.3-11.2c17.1,0,25.6,10.4,25.6,31.1v46.9h-17.6V78.1c0-7.3-0.9-12.4-2.6-15.4c-1.8-3-4.8-4.5-9-4.6
			c-4.8,0-8.3,1.8-10.5,5.5c-2.2,3.6-3.3,9.5-3.3,17.5v39.2h-17.6V78.3c0-13.5-3.9-20.2-11.7-20.2c-4.9,0-8.5,1.8-10.8,5.5
			c-2.3,3.7-3.4,9.5-3.4,17.4v39.2h-17.5V44.4z"/>
		<path class="st0" d="M360.2,12.8c0-3,1.2-5.9,3.4-7.9c4.4-4.4,11.6-4.5,16.1,0c0,0,0,0,0,0c2.2,2.1,3.4,5,3.4,8
			c0.1,3-1.2,6-3.4,8.1c-2.1,2.2-5,3.4-8,3.4c-3.1,0.1-6-1.2-8.1-3.4C361.4,18.9,360.2,15.9,360.2,12.8z M380.4,44.4v75.8h-17.5
			V44.4L380.4,44.4z"/>
		<path class="st0" d="M394.6,44.4h17.6v7c6.1-6.1,13-9.1,20.7-9.1c8.8,0,15.7,2.8,20.6,8.3c4.3,4.7,6.4,12.4,6.4,23.1v46.5h-17.6
			V77.9c0-7.5-1-12.6-3.1-15.5c-2.1-2.8-5.8-4.3-11-4.4c-5.8,0-9.9,1.9-12.4,5.8s-3.6,10.4-3.6,19.8v36.5h-17.6V44.4z"/>
		<path class="st0" d="M543.1,86.4h-54.3c0.5,6.2,2.5,11.2,6.1,14.9c3.6,3.7,8.6,5.6,13.8,5.4c3.8,0.2,7.6-0.9,10.8-3.1
			c2.8-2.1,6-5.9,9.6-11.5l14.8,8.2c-2.1,3.6-4.5,6.9-7.2,10c-2.4,2.7-5.1,5-8.2,6.9c-2.9,1.8-6.1,3.1-9.4,3.9
			c-3.6,0.9-7.3,1.3-11,1.2c-11.3,0-20.4-3.6-27.2-10.9c-6.8-7.3-10.2-17-10.2-29.1c0-12,3.3-21.7,10-29.1
			c6.7-7.4,15.5-11.1,26.6-11c11.2,0,20,3.6,26.5,10.7c6.5,7.1,9.7,16.9,9.7,29.4L543.1,86.4z M525.1,72.1c-2.4-9.3-8.3-14-17.7-14
			c-2,0-4.1,0.3-6,1c-1.8,0.6-3.6,1.6-5.1,2.8c-1.5,1.2-2.9,2.7-3.9,4.4c-1.1,1.8-2,3.8-2.5,5.8L525.1,72.1z"/>
	</g>
</g>
</svg>
